# AntSeed AI 3D Engine (GLM 5.3 Flash) - Spaceship: starship_apollo
mtllib starship_apollo.mtl
o starship_apollo
g Nosecone
usemtl Fuselage_Black
v -0.6000 7.0000 0.6000
v 0.6000 7.0000 0.6000
v 0.6000 9.0000 0.6000
v -0.6000 9.0000 0.6000
v -0.6000 7.0000 -0.6000
v 0.6000 7.0000 -0.6000
v 0.6000 9.0000 -0.6000
v -0.6000 9.0000 -0.6000
f 1 2 3 4
f 8 7 6 5
f 4 3 7 8
f 5 6 2 1
f 5 1 4 8
f 2 6 7 3
g Command_Cabin
usemtl Fuselage_White
v -1.0000 3.7500 1.0000
v 1.0000 3.7500 1.0000
v 1.0000 7.2500 1.0000
v -1.0000 7.2500 1.0000
v -1.0000 3.7500 -1.0000
v 1.0000 3.7500 -1.0000
v 1.0000 7.2500 -1.0000
v -1.0000 7.2500 -1.0000
f 9 10 11 12
f 16 15 14 13
f 12 11 15 16
f 13 14 10 9
f 13 9 12 16
f 10 14 15 11
g Main_Fuel_Tank
usemtl Fuselage_White
v -1.1000 -1.0000 1.1000
v 1.1000 -1.0000 1.1000
v 1.1000 4.0000 1.1000
v -1.1000 4.0000 1.1000
v -1.1000 -1.0000 -1.1000
v 1.1000 -1.0000 -1.1000
v 1.1000 4.0000 -1.1000
v -1.1000 4.0000 -1.1000
f 17 18 19 20
f 24 23 22 21
f 20 19 23 24
f 21 22 18 17
f 21 17 20 24
f 18 22 23 19
g Booster_Engine
usemtl Engine_Titanium
v -0.8000 -1.7000 0.8000
v 0.8000 -1.7000 0.8000
v 0.8000 -0.7000 0.8000
v -0.8000 -0.7000 0.8000
v -0.8000 -1.7000 -0.8000
v 0.8000 -1.7000 -0.8000
v 0.8000 -0.7000 -0.8000
v -0.8000 -0.7000 -0.8000
f 25 26 27 28
f 32 31 30 29
f 28 27 31 32
f 29 30 26 25
f 29 25 28 32
f 26 30 31 27
g Fin_North
usemtl Fin_Neon
v -0.0750 -0.7500 2.3000
v 0.0750 -0.7500 2.3000
v 0.0750 1.7500 2.3000
v -0.0750 1.7500 2.3000
v -0.0750 -0.7500 0.9000
v 0.0750 -0.7500 0.9000
v 0.0750 1.7500 0.9000
v -0.0750 1.7500 0.9000
f 33 34 35 36
f 40 39 38 37
f 36 35 39 40
f 37 38 34 33
f 37 33 36 40
f 34 38 39 35
g Fin_South
usemtl Fin_Neon
v -0.0750 -0.7500 -0.9000
v 0.0750 -0.7500 -0.9000
v 0.0750 1.7500 -0.9000
v -0.0750 1.7500 -0.9000
v -0.0750 -0.7500 -2.3000
v 0.0750 -0.7500 -2.3000
v 0.0750 1.7500 -2.3000
v -0.0750 1.7500 -2.3000
f 41 42 43 44
f 48 47 46 45
f 44 43 47 48
f 45 46 42 41
f 45 41 44 48
f 42 46 47 43
g Fin_East
usemtl Fin_Neon
v 0.9000 -0.7500 0.0750
v 2.3000 -0.7500 0.0750
v 2.3000 1.7500 0.0750
v 0.9000 1.7500 0.0750
v 0.9000 -0.7500 -0.0750
v 2.3000 -0.7500 -0.0750
v 2.3000 1.7500 -0.0750
v 0.9000 1.7500 -0.0750
f 49 50 51 52
f 56 55 54 53
f 52 51 55 56
f 53 54 50 49
f 53 49 52 56
f 50 54 55 51
g Fin_West
usemtl Fin_Neon
v -2.3000 -0.7500 0.0750
v -0.9000 -0.7500 0.0750
v -0.9000 1.7500 0.0750
v -2.3000 1.7500 0.0750
v -2.3000 -0.7500 -0.0750
v -0.9000 -0.7500 -0.0750
v -0.9000 1.7500 -0.0750
v -2.3000 1.7500 -0.0750
f 57 58 59 60
f 64 63 62 61
f 60 59 63 64
f 61 62 58 57
f 61 57 60 64
f 58 62 63 59