# AntSeed AI 3D Engine (GLM 5.3 Flash) - Character: zaddr_astronaut
mtllib zaddr_astronaut.mtl
o zaddr_astronaut
g Head_Helmet
usemtl Visor_Gold
v -0.3000 1.3000 0.3000
v 0.3000 1.3000 0.3000
v 0.3000 1.9000 0.3000
v -0.3000 1.9000 0.3000
v -0.3000 1.3000 -0.3000
v 0.3000 1.3000 -0.3000
v 0.3000 1.9000 -0.3000
v -0.3000 1.9000 -0.3000
f 1 2 3 4
f 8 7 6 5
f 4 3 7 8
f 5 6 2 1
f 5 1 4 8
f 2 6 7 3
g Torso_Suit
usemtl Suit_White
v -0.4000 0.4500 0.2500
v 0.4000 0.4500 0.2500
v 0.4000 1.3500 0.2500
v -0.4000 1.3500 0.2500
v -0.4000 0.4500 -0.2500
v 0.4000 0.4500 -0.2500
v 0.4000 1.3500 -0.2500
v -0.4000 1.3500 -0.2500
f 9 10 11 12
f 16 15 14 13
f 12 11 15 16
f 13 14 10 9
f 13 9 12 16
f 10 14 15 11
g Jetpack_Core
usemtl Thruster_Metal
v -0.3000 0.5500 -0.2500
v 0.3000 0.5500 -0.2500
v 0.3000 1.2500 -0.2500
v -0.3000 1.2500 -0.2500
v -0.3000 0.5500 -0.5500
v 0.3000 0.5500 -0.5500
v 0.3000 1.2500 -0.5500
v -0.3000 1.2500 -0.5500
f 17 18 19 20
f 24 23 22 21
f 20 19 23 24
f 21 22 18 17
f 21 17 20 24
f 18 22 23 19
g Left_Thruster
usemtl Thruster_Metal
v -0.2750 0.6000 -0.4750
v -0.1250 0.6000 -0.4750
v -0.1250 1.0000 -0.4750
v -0.2750 1.0000 -0.4750
v -0.2750 0.6000 -0.6250
v -0.1250 0.6000 -0.6250
v -0.1250 1.0000 -0.6250
v -0.2750 1.0000 -0.6250
f 25 26 27 28
f 32 31 30 29
f 28 27 31 32
f 29 30 26 25
f 29 25 28 32
f 26 30 31 27
g Right_Thruster
usemtl Thruster_Metal
v 0.1250 0.6000 -0.4750
v 0.2750 0.6000 -0.4750
v 0.2750 1.0000 -0.4750
v 0.1250 1.0000 -0.4750
v 0.1250 0.6000 -0.6250
v 0.2750 0.6000 -0.6250
v 0.2750 1.0000 -0.6250
v 0.1250 1.0000 -0.6250
f 33 34 35 36
f 40 39 38 37
f 36 35 39 40
f 37 38 34 33
f 37 33 36 40
f 34 38 39 35
g Left_Arm
usemtl Suit_White
v -0.6300 0.5500 0.1100
v -0.4100 0.5500 0.1100
v -0.4100 1.2500 0.1100
v -0.6300 1.2500 0.1100
v -0.6300 0.5500 -0.1100
v -0.4100 0.5500 -0.1100
v -0.4100 1.2500 -0.1100
v -0.6300 1.2500 -0.1100
f 41 42 43 44
f 48 47 46 45
f 44 43 47 48
f 45 46 42 41
f 45 41 44 48
f 42 46 47 43
g Right_Arm
usemtl Suit_White
v 0.4100 0.5500 0.1100
v 0.6300 0.5500 0.1100
v 0.6300 1.2500 0.1100
v 0.4100 1.2500 0.1100
v 0.4100 0.5500 -0.1100
v 0.6300 0.5500 -0.1100
v 0.6300 1.2500 -0.1100
v 0.4100 1.2500 -0.1100
f 49 50 51 52
f 56 55 54 53
f 52 51 55 56
f 53 54 50 49
f 53 49 52 56
f 50 54 55 51
g Left_Leg
usemtl Suit_White
v -0.3600 -0.0500 0.1400
v -0.0800 -0.0500 0.1400
v -0.0800 0.7500 0.1400
v -0.3600 0.7500 0.1400
v -0.3600 -0.0500 -0.1400
v -0.0800 -0.0500 -0.1400
v -0.0800 0.7500 -0.1400
v -0.3600 0.7500 -0.1400
f 57 58 59 60
f 64 63 62 61
f 60 59 63 64
f 61 62 58 57
f 61 57 60 64
f 58 62 63 59
g Right_Leg
usemtl Suit_White
v 0.0800 -0.0500 0.1400
v 0.3600 -0.0500 0.1400
v 0.3600 0.7500 0.1400
v 0.0800 0.7500 0.1400
v 0.0800 -0.0500 -0.1400
v 0.3600 -0.0500 -0.1400
v 0.3600 0.7500 -0.1400
v 0.0800 0.7500 -0.1400
f 65 66 67 68
f 72 71 70 69
f 68 67 71 72
f 69 70 66 65
f 69 65 68 72
f 66 70 71 67
g Left_Boot
usemtl Thruster_Metal
v -0.3800 -0.0500 0.2750
v -0.0600 -0.0500 0.2750
v -0.0600 0.1500 0.2750
v -0.3800 0.1500 0.2750
v -0.3800 -0.0500 -0.1750
v -0.0600 -0.0500 -0.1750
v -0.0600 0.1500 -0.1750
v -0.3800 0.1500 -0.1750
f 73 74 75 76
f 80 79 78 77
f 76 75 79 80
f 77 78 74 73
f 77 73 76 80
f 74 78 79 75
g Right_Boot
usemtl Thruster_Metal
v 0.0600 -0.0500 0.2750
v 0.3800 -0.0500 0.2750
v 0.3800 0.1500 0.2750
v 0.0600 0.1500 0.2750
v 0.0600 -0.0500 -0.1750
v 0.3800 -0.0500 -0.1750
v 0.3800 0.1500 -0.1750
v 0.0600 0.1500 -0.1750
f 81 82 83 84
f 88 87 86 85
f 84 83 87 88
f 85 86 82 81
f 85 81 84 88
f 82 86 87 83